<svg xmlns="http://www.w3.org/2000/svg" width="1920" height="629.344" viewBox="0 0 1920 629.344"><rect width="1920" height="626" fill="#0c314a"/><g transform="translate(2886 -4453)"><rect width="176" height="165" transform="translate(-2474 4912)" fill="#c61937"/><g transform="translate(-3 38)"><ellipse cx="9.5" cy="10" rx="9.5" ry="10" transform="translate(-2458 4900)" fill="#ffaa1d"/><ellipse cx="9.5" cy="10" rx="9.5" ry="10" transform="translate(-2415.334 4900)" fill="#ffaa1d"/><ellipse cx="9.5" cy="10" rx="9.5" ry="10" transform="translate(-2372.666 4900)" fill="#ffaa1d"/><ellipse cx="9.5" cy="10" rx="9.5" ry="10" transform="translate(-2330 4900)" fill="#ffaa1d"/></g><g transform="translate(-3 86)"><ellipse cx="9.5" cy="10" rx="9.5" ry="10" transform="translate(-2458 4900)" fill="#ffaa1d"/><ellipse cx="9.5" cy="10" rx="9.5" ry="10" transform="translate(-2415.334 4900)" fill="#ffaa1d"/><ellipse cx="9.5" cy="10" rx="9.5" ry="10" transform="translate(-2372.666 4900)" fill="#ffaa1d"/><ellipse cx="9.5" cy="10" rx="9.5" ry="10" transform="translate(-2330 4900)" fill="#ffaa1d"/></g><g transform="translate(-3 131)"><ellipse cx="9.5" cy="10" rx="9.5" ry="10" transform="translate(-2458 4900)" fill="#ffaa1d"/><ellipse cx="9.5" cy="10" rx="9.5" ry="10" transform="translate(-2415.334 4900)" fill="#ffaa1d"/><ellipse cx="9.5" cy="10" rx="9.5" ry="10" transform="translate(-2372.666 4900)" fill="#ffaa1d"/><ellipse cx="9.5" cy="10" rx="9.5" ry="10" transform="translate(-2330 4900)" fill="#ffaa1d"/></g></g><path d="M0,0,88.64,81.9,181,161H0Z" transform="translate(588 463)" fill="#ed7154"/><path d="M0,0,88.64,81.9,181,161H0Z" transform="translate(588 463)" fill="#ed7154"/><path d="M-2298,5077c89.993-75.212,179.068,0,179.068,0Z" transform="translate(2886 -4453)" fill="#dc5e40"/><path d="M-2298,5077c89.993-75.212,179.068,0,179.068,0Z" transform="translate(2886 -4453)" fill="#dc5e40"/><path d="M-2298,5070.575c82.33-60.755,163.82,0,163.82,0Z" transform="translate(5658.395 2760) rotate(90)" fill="#dc5e40"/><path d="M-2298,5070.575c82.33-60.755,163.82,0,163.82,0Z" transform="translate(5658.395 2760) rotate(90)" fill="#dc5e40"/><g transform="translate(2886 -4453)"><path d="M181,0,92.36,81.9,0,161H181Z" transform="translate(-2118 4916)" fill="#ffaa1d"/><path d="M-2118.932,5077c-89.993-75.212-179.068,0-179.068,0Z" transform="translate(179.82 0)" fill="#e2910b"/><path d="M0,0C81.415,60.6,162,0,162,0Z" transform="translate(-1937 4917) rotate(90)" fill="#e2910b"/></g><g transform="translate(2889 -4458)"><path d="M138,0,304.229,145S207,196.95,138,196.95-21.769,139.127-21.769,139.127Z" transform="translate(-1980 5061) rotate(180)" fill="#92b8b5"/><path d="M106.937,3.149l128.417,110.72s-66.024,46.73-128.417,45.142-121.157-51.5-121.157-51.5Z" transform="translate(-2011.269 5061) rotate(180)" fill="#851a5b"/><path d="M71.037,3.149l89.04,77.19s-45.134,29.975-89.04,28.894S-14.22,74.185-14.22,74.185Z" transform="translate(-2048.22 5059.261) rotate(180)" fill="#c61937"/><circle cx="5" cy="5" r="5" transform="translate(-2154 4921)" fill="#fff"/><circle cx="5" cy="5" r="5" transform="translate(-2160 4884)" fill="#c61937"/><circle cx="5" cy="5" r="5" transform="translate(-2186 4929)" fill="#fff"/><circle cx="5" cy="5" r="5" transform="translate(-2196 4893)" fill="#c61937"/><circle cx="5" cy="5" r="5" transform="translate(-2213 4940)" fill="#fff"/><path d="M5,0A5,5,0,1,1,0,5,5,5,0,0,1,5,0Z" transform="translate(-2229 4907)" fill="#c61937"/><path d="M5,0A5,5,0,1,1,0,5,5,5,0,0,1,5,0Z" transform="translate(-2257 4921)" fill="#c61937"/><path d="M5,0A5,5,0,1,1,0,5,5,5,0,0,1,5,0Z" transform="translate(-1997 4922)" fill="#c61937"/><circle cx="5" cy="5" r="5" transform="translate(-2124 4917)" fill="#fff"/><circle cx="5" cy="5" r="5" transform="translate(-2124 4877)" fill="#c61937"/><circle cx="5" cy="5" r="5" transform="translate(-2094 4921)" fill="#fff"/><circle cx="5" cy="5" r="5" transform="translate(-2090 4882)" fill="#c61937"/><circle cx="5" cy="5" r="5" transform="translate(-2064 4929)" fill="#fff"/><circle cx="5" cy="5" r="5" transform="translate(-2054 4893)" fill="#c61937"/><g transform="translate(-2039 4942)"><circle cx="5" cy="5" r="5" fill="#fff"/></g><g transform="translate(-2021.098 4907)"><circle cx="5" cy="5" r="5" transform="translate(0.098)" fill="#c61937"/></g></g><g transform="translate(2896 -4453)"><line y2="161" transform="translate(-1867.5 4917.5)" fill="none" stroke="#ed7154" stroke-width="5"/><rect width="12" height="12" transform="translate(-1862 4923)" fill="#b1ccc9"/><rect width="12" height="12" transform="translate(-1862 4960)" fill="#b1ccc9"/><rect width="12" height="12" transform="translate(-1862 4997)" fill="#b1ccc9"/><rect width="12" height="12" transform="translate(-1862 5034)" fill="#b1ccc9"/><rect width="12" height="12" transform="translate(-1884 5022)" fill="#b1ccc9"/><rect width="12" height="12" transform="translate(-1884 4983)" fill="#b1ccc9"/><rect width="12" height="12" transform="translate(-1884 4944)" fill="#b1ccc9"/></g><g transform="translate(2946 -4453)"><line y2="161" transform="translate(-1867.5 4917.5)" fill="none" stroke="#ed7154" stroke-width="5"/><rect width="12" height="12" transform="translate(-1862 4923)" fill="#ffaa1d"/><rect width="12" height="12" transform="translate(-1862 4960)" fill="#ffaa1d"/><rect width="12" height="12" transform="translate(-1862 4997)" fill="#ffaa1d"/><rect width="12" height="12" transform="translate(-1862 5034)" fill="#ffaa1d"/><rect width="12" height="12" transform="translate(-1884 5022)" fill="#ffaa1d"/><rect width="12" height="12" transform="translate(-1884 4983)" fill="#ffaa1d"/><rect width="12" height="12" transform="translate(-1884 4944)" fill="#ffaa1d"/></g><g transform="translate(2846 -4453)"><line y2="161" transform="translate(-1867.5 4917.5)" fill="none" stroke="#ed7154" stroke-width="5"/><rect width="12" height="12" transform="translate(-1862 4923)" fill="#c61937"/><rect width="12" height="12" transform="translate(-1862 4960)" fill="#c61937"/><rect width="12" height="12" transform="translate(-1862 4997)" fill="#c61937"/><rect width="12" height="12" transform="translate(-1862 5034)" fill="#c61937"/><rect width="12" height="12" transform="translate(-1884 5022)" fill="#c61937"/><rect width="12" height="12" transform="translate(-1884 4983)" fill="#c61937"/><rect width="12" height="12" transform="translate(-1884 4944)" fill="#c61937"/></g><rect width="77" height="91" transform="translate(1740 533)" fill="#851a5b"/><path d="M0,0H93A44,44,0,0,1,49,44H44A44,44,0,0,1,0,0Z" transform="translate(1817 533) rotate(90)" fill="#ffaa1d"/><path d="M-971.639,4983c-58.225-40.449-64.176-39.7-64.176-39.7s14.2-5.269,26.312-3.443a39.477,39.477,0,0,1,19.735,9.082C-974.774,4958.926-971.639,4983-971.639,4983Z" transform="matrix(-0.883, -0.469, 0.469, -0.883, -1419.811, 4504.354)" fill="#efb657"/><path d="M-1146,5020.533c49.945-35.276,54.547-34.509,54.547-34.509H-1146Z" transform="translate(2886 -4453)" fill="#d24299" opacity="0.56"/><circle cx="5" cy="5" r="5" transform="translate(1671 554)" fill="#ffaa1d"/><circle cx="5" cy="5" r="5" transform="translate(1686 577)" fill="#ffaa1d"/><circle cx="5" cy="5" r="5" transform="translate(1649 535)" fill="#ffaa1d"/><g transform="translate(2881 -4452)"><path d="M77,0H99a77,77,0,0,1,77,77v0a0,0,0,0,1,0,0H0a0,0,0,0,1,0,0v0A77,77,0,0,1,77,0Z" transform="translate(-2720 4931)" fill="#ed7154"/><path d="M69.867,2.027C105.367,2.027,142,22.833,142,51H0C0,22.833,34.367,2.027,69.867,2.027Z" transform="translate(-2700 4957)" fill="#0c314a"/></g><circle cx="5" cy="5" r="5" transform="translate(1626 523)" fill="#ffaa1d"/><circle cx="5" cy="5" r="5" transform="translate(1597 520)" fill="#ffaa1d"/><g transform="translate(2886 -4452)"><path d="M84,0h0a0,0,0,0,1,0,0V96a0,0,0,0,1,0,0H0a0,0,0,0,1,0,0V84A84,84,0,0,1,84,0Z" transform="translate(-2558 4912)" fill="#ffaa1d"/><path d="M59,0V72H0V59A59,59,0,0,1,59,0Z" transform="translate(-2533 4936)" fill="#851a5b"/></g><circle cx="5" cy="5" r="5" transform="translate(1792 460)" fill="#ed7154"/><circle cx="5" cy="5" r="5" transform="translate(1792 480)" fill="#ed7154"/><circle cx="5" cy="5" r="5" transform="translate(1792 500)" fill="#ed7154"/><g transform="translate(2886 -4453)"><circle cx="5" cy="5" r="5" transform="translate(-1161 4988)" fill="#ed7154"/><circle cx="5" cy="5" r="5" transform="translate(-1161 5008)" fill="#ed7154"/></g><circle cx="5" cy="5" r="5" transform="translate(1792 520)" fill="#ed7154"/><g transform="translate(2886 -4453)"><path d="M98.159,0h59.877V140.5H0V103.309C0,46.253,43.947,0,98.159,0Z" transform="translate(-1613.037 4938)" fill="#ffaa1d"/><path d="M100,0h30a0,0,0,0,1,0,0V117a0,0,0,0,1,0,0H0a0,0,0,0,1,0,0V100A100,100,0,0,1,100,0Z" transform="translate(-1585 4962)" fill="#b1ccc9"/><path d="M91,0h11a0,0,0,0,1,0,0V91a0,0,0,0,1,0,0H0a0,0,0,0,1,0,0v0A91,91,0,0,1,91,0Z" transform="translate(-1557 4988)" fill="#851a5b"/><circle cx="5" cy="5" r="5" transform="translate(-1544 5067)" fill="#fff"/><circle cx="5" cy="5" r="5" transform="translate(-1539 5040)" fill="#fff"/><circle cx="5" cy="5" r="5" transform="translate(-1525 5019)" fill="#fff"/><circle cx="5" cy="5" r="5" transform="translate(-1503 5003)" fill="#fff"/><circle cx="5" cy="5" r="5" transform="translate(-1480 4998)" fill="#fff"/></g><g transform="translate(2885 -4452)"><path d="M0,0H160V140H0Z" transform="translate(-1454 4938)" fill="#ed7154"/><g transform="translate(-2.703)"><g transform="translate(-1452.297 4986.725)"><g transform="translate(1)"><path d="M0,0H10a91,91,0,0,1,91,91v0a0,0,0,0,1,0,0H0a0,0,0,0,1,0,0V0A0,0,0,0,1,0,0Z" transform="translate(153 0.275)" fill="#c61937"/><path d="M3.964.253C14.734,3.678,102,90.1,102,90.1c0,2.2-3.4.9-5.553.9H3.964C1.815,91,1.815.253,3.964.253Z" transform="translate(151 -1)" fill="rgba(242,57,89,0.57)"/><path d="M0,0H160V91H0Z" fill="#c61937"/></g><circle cx="5" cy="5" r="5" transform="translate(4 9.275)" fill="#ffaa1d"/><circle cx="5" cy="5" r="5" transform="translate(24 9.275)" fill="#ffaa1d"/><circle cx="5" cy="5" r="5" transform="translate(44 9.275)" fill="#ffaa1d"/><circle cx="5" cy="5" r="5" transform="translate(63 9.275)" fill="#ffaa1d"/></g><path d="M-1295,4986.022c-160.017-46.271-157.294-48.086-157.294-48.086H-1295Z" fill="#fc8e75"/></g></g><g transform="translate(2886 -4453)"><rect width="154" height="137" rx="21" transform="translate(-1767 4942)" fill="#b1ccc9"/><rect width="76" height="130" rx="22" transform="translate(-1767 4942)" fill="#92b8b5"/><path d="M78.5,0h0A78.5,78.5,0,0,1,157,78.5V83a0,0,0,0,1,0,0H0a0,0,0,0,1,0,0V78.5A78.5,78.5,0,0,1,78.5,0Z" transform="translate(-1770 4996)" fill="#c61937"/><path d="M0,0H.447A79.553,79.553,0,0,1,80,79.553v0A3.447,3.447,0,0,1,76.553,83H0a0,0,0,0,1,0,0V0A0,0,0,0,1,0,0Z" transform="translate(-1690 4996)" fill="#fdb8c4" opacity="0.24"/></g><g transform="translate(2883 -4458)"><path d="M0,0H7A195,195,0,0,1,202,195v0a0,0,0,0,1,0,0H0a0,0,0,0,1,0,0V0A0,0,0,0,1,0,0Z" transform="translate(-2883 4887)" fill="#ffaa1d"/><path d="M0,0H12A131,131,0,0,1,143,131v0a0,0,0,0,1,0,0H0a0,0,0,0,1,0,0V0A0,0,0,0,1,0,0Z" transform="translate(-2883 4950)" fill="#c31a37"/></g><path d="M-10.313.07,215,0V73H-.091a137.4,137.4,0,0,0,0-35.149C-2.646,19.619-10.313.07-10.313.07Z" transform="translate(196.996 551)" fill="#b1ccc9"/><path d="M-2580.656,4976.5c183.648,68.24,175.438,67.243,175.438,67.243V4976.5Z" transform="translate(2817.053 -4424)" fill="#92b8b5"/><rect width="109" height="73" transform="translate(1811 460)" fill="#ffaa1d"/><g transform="translate(2885 -4454)"><rect width="102" height="92" transform="translate(-1068 4987)" fill="#ed7154"/><path d="M-1072.148,4985.811c105.729,93.477,101.645,92.116,101.645,92.116v-92.116Z" transform="translate(4 1)" fill="#c61937"/></g><path d="M44,0H58a44,44,0,0,1,44,44v0a0,0,0,0,1,0,0H0a0,0,0,0,1,0,0v0A44,44,0,0,1,44,0Z" transform="translate(1817 489)" fill="#851a5b"/><path d="M-967,4985.811c-62.644-43.2-65.746-43.2-65.746-43.2s15.428-2.2,29.436,0c7.123,1.119,13.735,4.873,19.381,8.605C-967.8,4961.878-967,4985.811-967,4985.811Z" transform="translate(2886 -4453)" fill="#ac377e"/><path d="M-1146,5020.533c49.945-35.276,54.547-34.509,54.547-34.509H-1146Z" transform="translate(2957 -4526)" fill="#efb657"/><g transform="translate(3066 -4573)"><circle cx="5" cy="5" r="5" transform="translate(-1161 4988)" fill="#ed7154"/><circle cx="5" cy="5" r="5" transform="translate(-1161 5008)" fill="#ed7154"/></g></svg>