<svg xmlns="http://www.w3.org/2000/svg" xmlns:xlink="http://www.w3.org/1999/xlink" width="1011" height="789.532" viewBox="0 0 1011 789.532"><defs><clipPath id="a"><rect width="202" height="199" transform="translate(0 0.228)" fill="#ffaa1d"/></clipPath><clipPath id="b"><rect width="204" height="201" transform="translate(0 0.336)" fill="#c61937"/></clipPath><clipPath id="c"><rect width="123" height="115" transform="translate(0 0.228)" fill="#841b5b"/></clipPath><clipPath id="d"><rect width="124" height="113" transform="translate(0 -0.21)" fill="#0c314a"/></clipPath></defs><path d="M50,0H156a50,50,0,0,1,50,50V196a0,0,0,0,1,0,0H0a0,0,0,0,1,0,0V50A50,50,0,0,1,50,0Z" transform="translate(408 196.532)" fill="#b1ccc9"/><rect width="200" height="201" transform="translate(609 588.532)" fill="#c51a34"/><path d="M3133.246,1296.384c-13.677-1.789-48.327,2.684-71.124,16.1s-54.71,37.571-54.71,37.571l138.6,140.445V1312.486S3146.924,1298.173,3133.246,1296.384Z" transform="translate(-2136.352 -1296.008)" fill="#92b8b5"/><path d="M2983.271,1457.615s.5-57.324,27.156-96.547,35.071-43.351,35.071-43.351l137.478,139.9Z" transform="translate(-2174.096 -1263.12)" fill="#b1ccc9"/><path d="M2983.271,1374.374h198.946L3082.4,1471.24Z" transform="translate(-2174.096 -1179.802)" fill="#ffaa1d"/><path d="M2983.271,1375.427l98.589,93.69-98.589,97.925Z" transform="translate(-2174.096 -1178.207)" fill="#851a5b"/><path d="M2983.271,1568.954l201.643-194.79-.54,394.874Z" transform="translate(-2174.096 -1180.12)" fill="#fff"/><path d="M3088.68,1435.071l-44.772,43.367,45.716,45.221Z" transform="translate(-2079.29 -1087.849)" fill="#b1ccc9"/><path d="M2983.569,1452.669l201.285,198.768H2983.081Z" transform="translate(-2174.395 -1061.189)" fill="#0c314a"/><rect width="202" height="199" transform="translate(809 590.532)" fill="#073148"/><g transform="translate(809 590.304)" clip-path="url(#a)"><ellipse cx="167.5" cy="155" rx="167.5" ry="155" transform="translate(-133 -110.772)" fill="#ffaa1d"/></g><g transform="translate(0 588.196)" clip-path="url(#b)"><ellipse cx="168.5" cy="157" rx="168.5" ry="157" transform="translate(0 0.336)" fill="#c61937"/></g><g transform="translate(809 590.304)" clip-path="url(#c)"><ellipse cx="102.5" cy="88.5" rx="102.5" ry="88.5" transform="translate(-82 -61.772)" fill="#841b5b"/></g><g transform="translate(80 676.742)" clip-path="url(#d)"><ellipse cx="103" cy="88" rx="103" ry="88" transform="translate(0 -0.21)" fill="#0c314a"/></g><path d="M2944.157,1374.374h99.61v280.715s-8.3-37.014-31.543-53.233-23.657-15.388-33.2-19.547-34.863-5.822-34.863-5.822Z" transform="translate(-2235.254 -1179.802)" fill="#ed7154"/><path d="M3105.042,1542.127v104.407H2905.113l.738-184.159s14.509,45.468,36.887,58.422,37.623,21.828,68.853,21.329S3105.042,1542.127,3105.042,1542.127Z" transform="translate(-2296.563 -1055.97)" fill="#851a5b"/><path d="M2905.011,1374.164h100.444v198.47s45.434,3.373,64.343,22.888,22.1,26.744,22.1,26.744l12.77,26.743v22.647H2986.054s-19.646-3.373-33.154-14.938-20.69-15.962-32.172-30.839-13.753-28.67-13.753-28.67Z" transform="translate(-2296.461 -1180.12)" fill="#c61937"/><rect width="200" height="199" rx="25" transform="translate(609 590.532)" fill="#fff"/><rect width="105" height="100" rx="10" transform="translate(657 641.532)" fill="#0e314a"/><rect width="106" height="101" rx="10" transform="translate(460 261.532)" fill="#0e314a"/><rect width="106" height="198" transform="translate(408 392.532)" fill="#851a59"/><rect width="101" height="198" transform="translate(511 392.532)" fill="#ffaa1d"/><circle cx="12.5" cy="12.5" r="12.5" transform="translate(953 297.532)" fill="#ffab1d"/><circle cx="12.5" cy="12.5" r="12.5" transform="translate(639 528.532)" fill="#fff"/><circle cx="13" cy="13" r="13" transform="translate(695 528.532)" fill="#fff"/><circle cx="12.5" cy="12.5" r="12.5" transform="translate(752 528.532)" fill="#fff"/><circle cx="6" cy="6" r="6" transform="translate(792 178.532)" fill="#ffab1d"/><circle cx="5" cy="5" r="5" transform="translate(776 179.532)" fill="#ffab1d"/><circle cx="4.5" cy="4.5" r="4.5" transform="translate(758 180.532)" fill="#ffab1d"/><circle cx="12.5" cy="12.5" r="12.5" transform="translate(922 335.532)" fill="#ffab1d"/><circle cx="13" cy="13" r="13" transform="translate(890 377.532)" fill="#ffab1d"/><circle cx="12.5" cy="12.5" r="12.5" transform="translate(922 416.532)" fill="#ffab1d"/><circle cx="12.5" cy="12.5" r="12.5" transform="translate(953 457.532)" fill="#ffab1d"/><rect width="204" height="196" transform="translate(204 392.532)" fill="#ed7154"/><path d="M102,0,204,106H0Z" transform="translate(204 482.532)" fill="#ffaa1d"/><rect width="46" height="39" rx="4" transform="translate(283 467.532)" fill="#fff"/><rect width="207" height="201" transform="translate(204 588.532)" fill="#c31a37"/><g transform="translate(408.566 589.734)"><rect width="202.52" height="198.68" fill="#fff"/><path d="M3007.417,1294.363s61.093,7.2,83.889,20.615,54.711,37.571,54.711,37.571l-138.6,140.445V1294.363Z" transform="translate(-3006.71 -1293.451)" fill="#0c314a"/><path d="M3182.977,1457.615s-.5-57.324-27.157-96.547-35.071-43.351-35.071-43.351l-137.478,139.9Z" transform="translate(-2981.783 -1258.071)" fill="#851a5b"/></g><circle cx="12.5" cy="12.5" r="12.5" transform="translate(237 615.532)" fill="#fff"/><circle cx="12.5" cy="12.5" r="12.5" transform="translate(237 678.532)" fill="#fff"/><circle cx="12.5" cy="12.5" r="12.5" transform="translate(237 741.532)" fill="#fff"/><circle cx="13" cy="13" r="13" transform="translate(293 615.532)" fill="#fff"/><circle cx="13" cy="13" r="13" transform="translate(293 678.532)" fill="#fff"/><circle cx="13" cy="13" r="13" transform="translate(293 741.532)" fill="#fff"/><circle cx="12.5" cy="12.5" r="12.5" transform="translate(350 615.532)" fill="#fff"/><circle cx="12.5" cy="12.5" r="12.5" transform="translate(350 678.532)" fill="#fff"/><circle cx="12.5" cy="12.5" r="12.5" transform="translate(350 741.532)" fill="#fff"/></svg>