<svg xmlns="http://www.w3.org/2000/svg" xmlns:xlink="http://www.w3.org/1999/xlink" width="1549" height="647.643" viewBox="0 0 1549 647.643">
  <defs>
    <linearGradient id="linear-gradient" x1="-11.741" y1="5.084" x2="-11.741" y2="4.933" gradientUnits="objectBoundingBox">
      <stop offset="0" stop-color="gray" stop-opacity="0.251"/>
      <stop offset="0.535" stop-color="gray" stop-opacity="0.122"/>
      <stop offset="1" stop-color="gray" stop-opacity="0.102"/>
    </linearGradient>
    <filter id="Rectangle_488" x="87" y="541.643" width="293" height="106" filterUnits="userSpaceOnUse">
      <feOffset dx="10" dy="10" input="SourceAlpha"/>
      <feGaussianBlur stdDeviation="5" result="blur"/>
      <feFlood flood-opacity="0.161"/>
      <feComposite operator="in" in2="blur"/>
      <feComposite in="SourceGraphic"/>
    </filter>
  </defs>
  <g id="Group_264" data-name="Group 264" transform="translate(-178 -2527.357)">
    <g id="undraw_Graduation_ktn0" transform="translate(556.669 2491.17) rotate(11)">
      <path id="Path_776" data-name="Path 776" d="M19.332.431C29.976.454,38.607,1.771,38.61,3.373S29.988,6.255,19.345,6.232.071,4.891.067,3.29,8.689.408,19.332.431Z" transform="translate(4.835 173.32) rotate(-63.611)" fill="#e0e0e0"/>
      <path id="Path_777" data-name="Path 777" d="M19.316.442c10.643.023,19.273.924,19.276,2.012S29.967,4.406,19.324,4.383.051,3.459.049,2.37,8.672.419,19.316.442Z" transform="translate(247.519 293.175) rotate(-63.611)" fill="#e0e0e0"/>
      <path id="Path_775" data-name="Path 775" d="M0,0,11.588-.031l-.1,38.586L-.1,38.586Z" transform="translate(121.559 222.313) rotate(39.547)" fill="#f55f44"/>
      <path id="Path_778" data-name="Path 778" d="M0,0,13.063-.016,13.016,38.5l-13.063.016Z" transform="translate(122.643 264.699) rotate(-166.769)" opacity="0.05"/>
      <path id="Path_779" data-name="Path 779" d="M0,0,11.61-.014,11.563,38.5l-11.61.014Z" transform="translate(122.643 264.699) rotate(-166.769)" fill="#f55f44"/>
      <path id="Path_780" data-name="Path 780" d="M4.952.871l40.47.088L46,270.678l-40.47-.088Z" transform="translate(4.4 179.633) rotate(-63.611)" fill="url(#linear-gradient)"/>
      <path id="Path_763" data-name="Path 763" d="M458.3,572.481c-4.734-2.259-245.34-121.071-241.872-119.36,13.354-20.272,17.206-34.489,17.206-34.489l241.872,119.36S467.013,552.818,458.3,572.481Z" transform="translate(-208.62 -278.399)" fill="#f5f5f5"/>
      <path id="Path_781" data-name="Path 781" d="M0,0,22.235-.048l-.083,38.543-22.235.048Z" transform="translate(130.78 192.428) rotate(26.389)" opacity="0.05"/>
      <path id="Path_782" data-name="Path 782" d="M0,0,20.3-.044,20.218,38.5l-20.3.044Z" transform="translate(131.647 192.856) rotate(26.389)" fill="#f55f44"/>
      <path id="Path_783" data-name="Path 783" d="M0,0,13.534-.029l-.083,38.543-13.534.029Z" transform="translate(134.248 194.139) rotate(26.389)" opacity="0.05"/>
      <path id="Path_784" data-name="Path 784" d="M0,0,11.6-.025l-.083,38.543-11.6.025Z" transform="translate(135.115 194.567) rotate(26.389)" fill="#f55f44"/>
      <ellipse id="Ellipse_167" data-name="Ellipse 167" cx="1.614" cy="1.605" rx="1.614" ry="1.605" transform="translate(142.504 307.727)" fill="#dbdbdb"/>
      <g id="Group_257" data-name="Group 257" transform="translate(12.353 264.393)" opacity="0.5">
        <rect id="Rectangle_480" data-name="Rectangle 480" width="1.655" height="9.325" transform="translate(3.861)" fill="#47e6b1"/>
        <rect id="Rectangle_481" data-name="Rectangle 481" width="1.646" height="9.376" transform="translate(9.376 3.84) rotate(90)" fill="#47e6b1"/>
      </g>
      <g id="Group_258" data-name="Group 258" transform="translate(429.301 148.104)" opacity="0.5">
        <rect id="Rectangle_482" data-name="Rectangle 482" width="1.655" height="9.325" transform="translate(3.86)" fill="#47e6b1"/>
        <rect id="Rectangle_483" data-name="Rectangle 483" width="1.646" height="9.376" transform="translate(9.376 3.84) rotate(90)" fill="#47e6b1"/>
      </g>
      <g id="Group_259" data-name="Group 259" transform="translate(22.28 32.363)" opacity="0.5">
        <rect id="Rectangle_484" data-name="Rectangle 484" width="1.655" height="9.325" transform="translate(3.861)" fill="#47e6b1"/>
        <rect id="Rectangle_485" data-name="Rectangle 485" width="1.646" height="9.376" transform="translate(9.376 3.84) rotate(90)" fill="#47e6b1"/>
      </g>
      <g id="Group_260" data-name="Group 260" transform="translate(379.664 18.102)" opacity="0.5">
        <rect id="Rectangle_486" data-name="Rectangle 486" width="1.655" height="9.325" transform="translate(3.86)" fill="#47e6b1"/>
        <rect id="Rectangle_487" data-name="Rectangle 487" width="1.646" height="9.376" transform="translate(9.376 3.84) rotate(90)" fill="#47e6b1"/>
      </g>
      <path id="Path_764" data-name="Path 764" d="M209.083,413.366a2.012,2.012,0,0,1-1.129-2.436.965.965,0,0,0,.044-.224h0a1.017,1.017,0,0,0-1.826-.67h0a.967.967,0,0,0-.112.2,2.03,2.03,0,0,1-2.449,1.123.979.979,0,0,0-.225-.044h0a1.01,1.01,0,0,0-.674,1.816h0a.974.974,0,0,0,.2.112,2.012,2.012,0,0,1,1.129,2.436.961.961,0,0,0-.044.224h0a1.017,1.017,0,0,0,1.826.67h0a.966.966,0,0,0,.112-.2,2.03,2.03,0,0,1,2.449-1.123.981.981,0,0,0,.225.044h0a1.01,1.01,0,0,0,.673-1.816h0a.976.976,0,0,0-.2-.112Z" transform="translate(-202.303 -274.336)" fill="#4d8af0" opacity="0.5"/>
      <path id="Path_765" data-name="Path 765" d="M381.083,216.366a2.012,2.012,0,0,1-1.129-2.436.966.966,0,0,0,.044-.224h0a1.017,1.017,0,0,0-1.826-.67h0a.965.965,0,0,0-.112.2,2.03,2.03,0,0,1-2.449,1.123.978.978,0,0,0-.225-.044h0a1.01,1.01,0,0,0-.674,1.816h0a.977.977,0,0,0,.2.112,2.012,2.012,0,0,1,1.129,2.436.963.963,0,0,0-.044.224h0a1.017,1.017,0,0,0,1.826.67h0a.967.967,0,0,0,.112-.2,2.03,2.03,0,0,1,2.449-1.123.98.98,0,0,0,.225.044h0a1.01,1.01,0,0,0,.674-1.816h0a.975.975,0,0,0-.2-.112Z" transform="translate(-279.442 -185.398)" fill="#4d8af0" opacity="0.5"/>
      <path id="Path_766" data-name="Path 766" d="M591.083,727.366a2.012,2.012,0,0,1-1.129-2.436.963.963,0,0,0,.044-.224h0a1.017,1.017,0,0,0-1.826-.67h0a.965.965,0,0,0-.112.2,2.03,2.03,0,0,1-2.449,1.123.973.973,0,0,0-.225-.044h0a1.01,1.01,0,0,0-.674,1.816h0a.973.973,0,0,0,.2.112,2.012,2.012,0,0,1,1.129,2.436.958.958,0,0,0-.044.223h0a1.017,1.017,0,0,0,1.826.67h0a.967.967,0,0,0,.112-.2,2.03,2.03,0,0,1,2.449-1.123.98.98,0,0,0,.225.044h0a1.01,1.01,0,0,0,.674-1.816h0A.981.981,0,0,0,591.083,727.366Z" transform="translate(-373.623 -416.097)" fill="#4d8af0" opacity="0.5"/>
      <ellipse id="Ellipse_168" data-name="Ellipse 168" cx="3.309" cy="3.291" rx="3.309" ry="3.291" transform="translate(415.513 240.258)" fill="#f55f44" opacity="0.5"/>
      <ellipse id="Ellipse_169" data-name="Ellipse 169" cx="3.309" cy="3.291" rx="3.309" ry="3.291" transform="translate(342.713 261.102)" fill="#4d8af0" opacity="0.5"/>
      <ellipse id="Ellipse_170" data-name="Ellipse 170" cx="3.309" cy="3.291" rx="3.309" ry="3.291" transform="translate(53.717 293.465)" fill="#47e6b1" opacity="0.5"/>
      <ellipse id="Ellipse_171" data-name="Ellipse 171" cx="3.309" cy="3.291" rx="3.309" ry="3.291" transform="translate(223.585)" fill="#f55f44" opacity="0.5"/>
      <path id="Path_767" data-name="Path 767" d="M396.433,483.912,383.2,503.659s4.412,20.3,102.031,19.747,105.34-19.747,105.34-19.747l-18.2-26.33-55.7-37.849Z" transform="translate(-283.428 -287.811)" fill="#841b5b"/>
      <path id="Path_768" data-name="Path 768" d="M396.433,483.912,383.2,503.659s4.412,20.3,102.031,19.747,105.34-19.747,105.34-19.747l-18.2-26.33-55.7-37.849Z" transform="translate(-283.428 -287.811)" opacity="0.15"/>
      <path id="Path_769" data-name="Path 769" d="M401.905,151.765,228.177,228.012,16.394,151.765,210.529,64l95.3,43.7,3.414,1.569Z" transform="translate(-7.35 -28.894)" fill="#841b5b"/>
      <path id="Path_770" data-name="Path 770" d="M401.905,151.765,228.177,228.012,16.394,151.765,210.529,64l95.3,43.7,3.414,1.569Z" transform="translate(-7.35 -28.894)" opacity="0.15"/>
      <path id="Path_771" data-name="Path 771" d="M548.194,206.011l-3.309.2-3.7-62.538,3.414,1.569Z" transform="translate(-242.709 -64.862)" fill="#f5f5f5"/>
      <path id="Path_772" data-name="Path 772" d="M398.64,377.285,383.2,470.536s110.855-35.655,207.371,0L576.229,371.8S446.622,355.893,398.64,377.285Z" transform="translate(-283.428 -254.688)" fill="#841b5b"/>
      <ellipse id="Ellipse_172" data-name="Ellipse 172" cx="15.994" cy="10.971" rx="15.994" ry="10.971" transform="translate(289.215 138.23)" fill="#f5f5f5"/>
    </g>
    
   
  </g>
</svg>
