    <!-- <svg width="218" height="69" viewBox="0 0 218 69" fill="none" xmlns="http://www.w3.org/2000/svg">
    <path d="M0 0H43V22.99H0V0Z" fill="#FFAA1D"/>
    <path d="M16 0H0V69H16V0Z" fill="#ED7154"/>
    <path d="M43 0H67C67 6.09998 64.5768 11.9501 60.2635 16.2635C55.9501 20.5768 50.1 23 44 23H43V0Z" fill="#0C314A"/>
    <path d="M16 40H22C29.6913 40 37.0675 43.0553 42.5061 48.4939C47.9447 53.9325 51 61.3087 51 69H16V40Z" fill="#851A5B"/>
    <path d="M73.2031 41.2812L71.3906 42.6719C70.3906 41.3698 69.1875 40.3854 67.7812 39.7188C66.3854 39.0417 64.849 38.7031 63.1719 38.7031C61.3385 38.7031 59.6406 39.1458 58.0781 40.0312C56.5156 40.9062 55.3021 42.0885 54.4375 43.5781C53.5833 45.0573 53.1562 46.724 53.1562 48.5781C53.1562 51.3802 54.1146 53.7188 56.0312 55.5938C57.9583 57.4688 60.3854 58.4062 63.3125 58.4062C66.5312 58.4062 69.224 57.1458 71.3906 54.625L73.2031 56C72.0573 57.4583 70.625 58.5885 68.9062 59.3906C67.1979 60.1823 65.2865 60.5781 63.1719 60.5781C59.151 60.5781 55.9792 59.2396 53.6562 56.5625C51.7083 54.3021 50.7344 51.5729 50.7344 48.375C50.7344 45.0104 51.9115 42.1823 54.2656 39.8906C56.6302 37.5885 59.5885 36.4375 63.1406 36.4375C65.2865 36.4375 67.224 36.8646 68.9531 37.7188C70.6823 38.5625 72.099 39.75 73.2031 41.2812ZM85.5156 42.5625C88.1302 42.5625 90.2969 43.5104 92.0156 45.4062C93.5781 47.1354 94.3594 49.1823 94.3594 51.5469C94.3594 53.9219 93.5312 56 91.875 57.7812C90.2292 59.5521 88.1094 60.4375 85.5156 60.4375C82.9115 60.4375 80.7812 59.5521 79.125 57.7812C77.4792 56 76.6562 53.9219 76.6562 51.5469C76.6562 49.1927 77.4375 47.151 79 45.4219C80.7188 43.5156 82.8906 42.5625 85.5156 42.5625ZM85.5156 44.7031C83.7031 44.7031 82.1458 45.375 80.8438 46.7188C79.5417 48.0625 78.8906 49.6875 78.8906 51.5938C78.8906 52.8229 79.1875 53.9688 79.7812 55.0312C80.375 56.0938 81.1771 56.9167 82.1875 57.5C83.1979 58.0729 84.3073 58.3594 85.5156 58.3594C86.724 58.3594 87.8333 58.0729 88.8438 57.5C89.8542 56.9167 90.6562 56.0938 91.25 55.0312C91.8438 53.9688 92.1406 52.8229 92.1406 51.5938C92.1406 49.6875 91.4844 48.0625 90.1719 46.7188C88.8698 45.375 87.3177 44.7031 85.5156 44.7031ZM115.406 36.4375V60H113.25V57.0781C112.333 58.1927 111.302 59.0312 110.156 59.5938C109.021 60.1562 107.776 60.4375 106.422 60.4375C104.016 60.4375 101.958 59.5677 100.25 57.8281C98.5521 56.0781 97.7031 53.9531 97.7031 51.4531C97.7031 49.0052 98.5625 46.9115 100.281 45.1719C102 43.4323 104.068 42.5625 106.484 42.5625C107.88 42.5625 109.141 42.8594 110.266 43.4531C111.401 44.0469 112.396 44.9375 113.25 46.125V36.4375H115.406ZM106.656 44.6719C105.438 44.6719 104.312 44.974 103.281 45.5781C102.25 46.1719 101.427 47.0104 100.812 48.0938C100.208 49.1771 99.9062 50.3229 99.9062 51.5312C99.9062 52.7292 100.214 53.875 100.828 54.9688C101.443 56.0625 102.266 56.9167 103.297 57.5312C104.339 58.1354 105.453 58.4375 106.641 58.4375C107.839 58.4375 108.974 58.1354 110.047 57.5312C111.12 56.9271 111.943 56.1094 112.516 55.0781C113.099 54.0469 113.391 52.8854 113.391 51.5938C113.391 49.625 112.74 47.9792 111.438 46.6562C110.146 45.3333 108.552 44.6719 106.656 44.6719ZM134.688 54.3594L136.531 55.3281C135.927 56.5156 135.229 57.474 134.438 58.2031C133.646 58.9323 132.755 59.4896 131.766 59.875C130.776 60.25 129.656 60.4375 128.406 60.4375C125.635 60.4375 123.469 59.5312 121.906 57.7188C120.344 55.8958 119.562 53.8385 119.562 51.5469C119.562 49.3906 120.224 47.4688 121.547 45.7812C123.224 43.6354 125.469 42.5625 128.281 42.5625C131.177 42.5625 133.49 43.6615 135.219 45.8594C136.448 47.4115 137.073 49.349 137.094 51.6719H121.812C121.854 53.651 122.484 55.276 123.703 56.5469C124.922 57.8073 126.427 58.4375 128.219 58.4375C129.083 58.4375 129.922 58.2865 130.734 57.9844C131.557 57.6823 132.255 57.2812 132.828 56.7812C133.401 56.2812 134.021 55.474 134.688 54.3594ZM134.688 49.7812C134.396 48.6146 133.969 47.6823 133.406 46.9844C132.854 46.2865 132.12 45.724 131.203 45.2969C130.286 44.8698 129.323 44.6562 128.312 44.6562C126.646 44.6562 125.214 45.1927 124.016 46.2656C123.141 47.0469 122.479 48.2188 122.031 49.7812H134.688ZM139.266 39.25V37.0156H151.875V39.25H146.75V60H144.406V39.25H139.266ZM153.984 43H156.219V45.4844C156.885 44.5052 157.589 43.776 158.328 43.2969C159.068 42.8073 159.839 42.5625 160.641 42.5625C161.245 42.5625 161.891 42.7552 162.578 43.1406L161.438 44.9844C160.979 44.7865 160.594 44.6875 160.281 44.6875C159.552 44.6875 158.849 44.9896 158.172 45.5938C157.495 46.1875 156.979 47.1146 156.625 48.375C156.354 49.3438 156.219 51.3021 156.219 54.25V60H153.984V43ZM172.484 42.5625C175.099 42.5625 177.266 43.5104 178.984 45.4062C180.547 47.1354 181.328 49.1823 181.328 51.5469C181.328 53.9219 180.5 56 178.844 57.7812C177.198 59.5521 175.078 60.4375 172.484 60.4375C169.88 60.4375 167.75 59.5521 166.094 57.7812C164.448 56 163.625 53.9219 163.625 51.5469C163.625 49.1927 164.406 47.151 165.969 45.4219C167.688 43.5156 169.859 42.5625 172.484 42.5625ZM172.484 44.7031C170.672 44.7031 169.115 45.375 167.812 46.7188C166.51 48.0625 165.859 49.6875 165.859 51.5938C165.859 52.8229 166.156 53.9688 166.75 55.0312C167.344 56.0938 168.146 56.9167 169.156 57.5C170.167 58.0729 171.276 58.3594 172.484 58.3594C173.693 58.3594 174.802 58.0729 175.812 57.5C176.823 56.9167 177.625 56.0938 178.219 55.0312C178.812 53.9688 179.109 52.8229 179.109 51.5938C179.109 49.6875 178.453 48.0625 177.141 46.7188C175.839 45.375 174.286 44.7031 172.484 44.7031ZM185.438 43H187.609V46.125C188.474 44.9375 189.469 44.0469 190.594 43.4531C191.719 42.8594 192.974 42.5625 194.359 42.5625C196.776 42.5625 198.844 43.4323 200.562 45.1719C202.281 46.9115 203.141 49.0052 203.141 51.4531C203.141 53.9531 202.286 56.0781 200.578 57.8281C198.88 59.5677 196.828 60.4375 194.422 60.4375C193.068 60.4375 191.823 60.1562 190.688 59.5938C189.552 59.0312 188.526 58.1927 187.609 57.0781V66.2188H185.438V43ZM194.188 44.6719C192.292 44.6719 190.693 45.3333 189.391 46.6562C188.099 47.9792 187.453 49.625 187.453 51.5938C187.453 52.8854 187.74 54.0469 188.312 55.0781C188.896 56.1094 189.724 56.9271 190.797 57.5312C191.88 58.1354 193.021 58.4375 194.219 58.4375C195.396 58.4375 196.5 58.1354 197.531 57.5312C198.573 56.9167 199.401 56.0625 200.016 54.9688C200.63 53.875 200.938 52.7292 200.938 51.5312C200.938 50.3229 200.63 49.1771 200.016 48.0938C199.411 47.0104 198.594 46.1719 197.562 45.5781C196.531 44.974 195.406 44.6719 194.188 44.6719ZM215.797 44.8594L214.391 46.3125C213.224 45.1771 212.083 44.6094 210.969 44.6094C210.26 44.6094 209.651 44.8438 209.141 45.3125C208.641 45.7812 208.391 46.3281 208.391 46.9531C208.391 47.5052 208.599 48.0312 209.016 48.5312C209.432 49.0417 210.307 49.6406 211.641 50.3281C213.266 51.1719 214.37 51.9844 214.953 52.7656C215.526 53.5573 215.812 54.4479 215.812 55.4375C215.812 56.8333 215.323 58.0156 214.344 58.9844C213.365 59.9531 212.141 60.4375 210.672 60.4375C209.693 60.4375 208.755 60.224 207.859 59.7969C206.974 59.3698 206.24 58.7812 205.656 58.0312L207.031 56.4688C208.146 57.7292 209.328 58.3594 210.578 58.3594C211.453 58.3594 212.198 58.0781 212.812 57.5156C213.427 56.9531 213.734 56.2917 213.734 55.5312C213.734 54.9062 213.531 54.349 213.125 53.8594C212.719 53.3802 211.802 52.776 210.375 52.0469C208.844 51.2552 207.802 50.474 207.25 49.7031C206.698 48.9323 206.422 48.0521 206.422 47.0625C206.422 45.7708 206.859 44.6979 207.734 43.8438C208.62 42.9896 209.734 42.5625 211.078 42.5625C212.641 42.5625 214.214 43.3281 215.797 44.8594Z" fill="white"/>

    </svg> -->

<svg xmlns="http://www.w3.org/2000/svg" width="500" height="150" viewBox="0 500 150">
  <g id="Group_249" data-name="Group 249" transform="translate(0 -4752)">

       <g id="Group_270" data-name="Group 270" transform="translate(189 4799)">
      <path id="Path_495" data-name="Path 495" d="M0,0H43V22.99H0Z" transform="translate(49 23)" fill="#ffaa1d"/>
      <rect id="Rectangle_267" data-name="Rectangle 267" width="16" height="69" transform="translate(49 23)" fill="#ed7154"/>
      <!-- <path id="Rectangle_268" data-name="Rectangle 268" d="M0,0H24a0,0,0,0,1,0,0V0A23,23,0,0,1,1,23H0a0,0,0,0,1,0,0V0A0,0,0,0,1,0,0Z" transform="translate(92 23)" fill="#0c314a"/> -->
      <path id="Rectangle_269" data-name="Rectangle 269" d="M0,0H6A29,29,0,0,1,35,29v0a0,0,0,0,1,0,0H0a0,0,0,0,1,0,0V0A0,0,0,0,1,0,0Z" transform="translate(65 63)" fill="#851a5b"/>
      <text id="CodeTrophs" transform="translate(98 83)" fill="#fff" font-size="32" font-family="Helvetica-Bold, Helvetica" font-weight="700"><tspan x="0" y="0">CodeTrophs</tspan></text>
    </g>
</g>
</svg>
