<svg xmlns="http://www.w3.org/2000/svg" viewBox="0 0 1920 629.344">

  <g id="Group_249" data-name="Group 249" transform="translate(0 -4752)">
    <!-- <rect id="Rectangle_1" data-name="Rectangle 1"  transform="translate(0 4752)" fill="#0c314a"/> -->
    
    <ellipse id="Ellipse_1" data-name="Ellipse 1" cx="12" cy="11.5" rx="12" ry="11.5" transform="translate(8 5131)" fill="#ffaa1d"/>
    <ellipse id="Ellipse_2" data-name="Ellipse 2" cx="12" cy="11.5" rx="12" ry="11.5" transform="translate(8 5083)" fill="#ffaa1d"/>
    <ellipse id="Ellipse_3" data-name="Ellipse 3" cx="12" cy="11.5" rx="12" ry="11.5" transform="translate(8 5035)" fill="#ffaa1d"/>
    <ellipse id="Ellipse_4" data-name="Ellipse 4" cx="12" cy="11.5" rx="12" ry="11.5" transform="translate(8 4987)" fill="#ffaa1d"/>
    <ellipse id="Ellipse_5" data-name="Ellipse 5" cx="12" cy="11.5" rx="12" ry="11.5" transform="translate(8 4943)" fill="#ffaa1d"/>
    <g id="Group_22" data-name="Group 22" transform="translate(2886 299)">
      <rect id="Rectangle_5" data-name="Rectangle 5" width="176" height="165" transform="translate(-2474 4912)" fill="#c61937"/>
      <g id="Group_21" data-name="Group 21">
        <g id="Group_2" data-name="Group 2" transform="translate(-3 38)">
          <ellipse id="Ellipse_6" data-name="Ellipse 6" cx="9.5" cy="10" rx="9.5" ry="10" transform="translate(-2458 4900)" fill="#ffaa1d"/>
          <ellipse id="Ellipse_7" data-name="Ellipse 7" cx="9.5" cy="10" rx="9.5" ry="10" transform="translate(-2415.334 4900)" fill="#ffaa1d"/>
          <ellipse id="Ellipse_8" data-name="Ellipse 8" cx="9.5" cy="10" rx="9.5" ry="10" transform="translate(-2372.666 4900)" fill="#ffaa1d"/>
          <ellipse id="Ellipse_9" data-name="Ellipse 9" cx="9.5" cy="10" rx="9.5" ry="10" transform="translate(-2330 4900)" fill="#ffaa1d"/>
        </g>
        <g id="Group_3" data-name="Group 3" transform="translate(-3 86)">
          <ellipse id="Ellipse_6-2" data-name="Ellipse 6" cx="9.5" cy="10" rx="9.5" ry="10" transform="translate(-2458 4900)" fill="#ffaa1d"/>
          <ellipse id="Ellipse_7-2" data-name="Ellipse 7" cx="9.5" cy="10" rx="9.5" ry="10" transform="translate(-2415.334 4900)" fill="#ffaa1d"/>
          <ellipse id="Ellipse_8-2" data-name="Ellipse 8" cx="9.5" cy="10" rx="9.5" ry="10" transform="translate(-2372.666 4900)" fill="#ffaa1d"/>
          <ellipse id="Ellipse_9-2" data-name="Ellipse 9" cx="9.5" cy="10" rx="9.5" ry="10" transform="translate(-2330 4900)" fill="#ffaa1d"/>
        </g>
        <g id="Group_4" data-name="Group 4" transform="translate(-3 131)">
          <ellipse id="Ellipse_6-3" data-name="Ellipse 6" cx="9.5" cy="10" rx="9.5" ry="10" transform="translate(-2458 4900)" fill="#ffaa1d"/>
          <ellipse id="Ellipse_7-3" data-name="Ellipse 7" cx="9.5" cy="10" rx="9.5" ry="10" transform="translate(-2415.334 4900)" fill="#ffaa1d"/>
          <ellipse id="Ellipse_8-3" data-name="Ellipse 8" cx="9.5" cy="10" rx="9.5" ry="10" transform="translate(-2372.666 4900)" fill="#ffaa1d"/>
          <ellipse id="Ellipse_9-3" data-name="Ellipse 9" cx="9.5" cy="10" rx="9.5" ry="10" transform="translate(-2330 4900)" fill="#ffaa1d"/>
        </g>
      </g>
    </g>
  
    
    <path id="Path_5" data-name="Path 5" d="M0,0,88.64,81.9,181,161H0Z" transform="translate(588 5215)" fill="#ed7154"/>
    <path id="Path_14" data-name="Path 14" d="M0,0,88.64,81.9,181,161H0Z" transform="translate(588 5215)" fill="#ed7154"/>
    <path id="Path_7" data-name="Path 7" d="M-2298,5077c89.993-75.212,179.068,0,179.068,0Z" transform="translate(2886 299)" fill="#dc5e40"/>
    <path id="Path_13" data-name="Path 13" d="M-2298,5077c89.993-75.212,179.068,0,179.068,0Z" transform="translate(2886 299)" fill="#dc5e40"/>
    <path id="Path_8" data-name="Path 8" d="M-2298,5070.575c82.33-60.755,163.82,0,163.82,0Z" transform="translate(5658.395 7512) rotate(90)" fill="#dc5e40"/>
    <path id="Path_15" data-name="Path 15" d="M-2298,5070.575c82.33-60.755,163.82,0,163.82,0Z" transform="translate(5658.395 7512) rotate(90)" fill="#dc5e40"/>
    <g id="Group_9" data-name="Group 9" transform="translate(2886 299)">
      <path id="Path_6" data-name="Path 6" d="M181,0,92.36,81.9,0,161H181Z" transform="translate(-2118 4916)" fill="#ffaa1d"/>
      <path id="Path_9" data-name="Path 9" d="M-2118.932,5077c-89.993-75.212-179.068,0-179.068,0Z" transform="translate(179.82 0)" fill="#e2910b"/>
      <path id="Path_10" data-name="Path 10" d="M0,0C81.415,60.6,162,0,162,0Z" transform="translate(-1937 4917) rotate(90)" fill="#e2910b"/>
    </g>
    <g id="Group_10" data-name="Group 10" transform="translate(2889 294)">
      <path id="Path_11" data-name="Path 11" d="M138,0,304.229,145S207,196.95,138,196.95-21.769,139.127-21.769,139.127Z" transform="translate(-1980 5061) rotate(180)" fill="#92b8b5"/>
      <path id="Path_12" data-name="Path 12" d="M106.937,3.149l128.417,110.72s-66.024,46.73-128.417,45.142-121.157-51.5-121.157-51.5Z" transform="translate(-2011.269 5061) rotate(180)" fill="#851a5b"/>
      <path id="Path_16" data-name="Path 16" d="M71.037,3.149l89.04,77.19s-45.134,29.975-89.04,28.894S-14.22,74.185-14.22,74.185Z" transform="translate(-2048.22 5059.261) rotate(180)" fill="#c61937"/>
      <circle id="Ellipse_16" data-name="Ellipse 16" cx="5" cy="5" r="5" transform="translate(-2154 4921)" fill="#fff"/>
      <circle id="Ellipse_25" data-name="Ellipse 25" cx="5" cy="5" r="5" transform="translate(-2160 4884)" fill="#c61937"/>
      <circle id="Ellipse_21" data-name="Ellipse 21" cx="5" cy="5" r="5" transform="translate(-2186 4929)" fill="#fff"/>
      <circle id="Ellipse_24" data-name="Ellipse 24" cx="5" cy="5" r="5" transform="translate(-2196 4893)" fill="#c61937"/>
      <circle id="Ellipse_22" data-name="Ellipse 22" cx="5" cy="5" r="5" transform="translate(-2213 4940)" fill="#fff"/>
      <path id="Path_17" data-name="Path 17" d="M5,0A5,5,0,1,1,0,5,5,5,0,0,1,5,0Z" transform="translate(-2229 4907)" fill="#c61937"/>
      <path id="Path_18" data-name="Path 18" d="M5,0A5,5,0,1,1,0,5,5,5,0,0,1,5,0Z" transform="translate(-2257 4921)" fill="#c61937"/>
      <path id="Path_19" data-name="Path 19" d="M5,0A5,5,0,1,1,0,5,5,5,0,0,1,5,0Z" transform="translate(-1997 4922)" fill="#c61937"/>
      <circle id="Ellipse_17" data-name="Ellipse 17" cx="5" cy="5" r="5" transform="translate(-2124 4917)" fill="#fff"/>
      <circle id="Ellipse_26" data-name="Ellipse 26" cx="5" cy="5" r="5" transform="translate(-2124 4877)" fill="#c61937"/>
      <circle id="Ellipse_18" data-name="Ellipse 18" cx="5" cy="5" r="5" transform="translate(-2094 4921)" fill="#fff"/>
      <circle id="Ellipse_27" data-name="Ellipse 27" cx="5" cy="5" r="5" transform="translate(-2090 4882)" fill="#c61937"/>
      <circle id="Ellipse_19" data-name="Ellipse 19" cx="5" cy="5" r="5" transform="translate(-2064 4929)" fill="#fff"/>
      <circle id="Ellipse_28" data-name="Ellipse 28" cx="5" cy="5" r="5" transform="translate(-2054 4893)" fill="#c61937"/>
      <g id="Group_14" data-name="Group 14" transform="translate(-2039 4942)">
        <circle id="Ellipse_20" data-name="Ellipse 20" cx="5" cy="5" r="5" fill="#fff"/>
      </g>
      <g id="Group_15" data-name="Group 15" transform="translate(-2021.098 4907)">
        <circle id="Ellipse_20-2" data-name="Ellipse 20" cx="5" cy="5" r="5" transform="translate(0.098)" fill="#c61937"/>
      </g>
    </g>
    <g id="Group_11" data-name="Group 11" transform="translate(2896 299)">
      <line id="Line_4" data-name="Line 4" y2="161" transform="translate(-1867.5 4917.5)" fill="none" stroke="#ed7154" stroke-width="5"/>
      <rect id="Rectangle_9" data-name="Rectangle 9" width="12" height="12" transform="translate(-1862 4923)" fill="#b1ccc9"/>
      <rect id="Rectangle_11" data-name="Rectangle 11" width="12" height="12" transform="translate(-1862 4960)" fill="#b1ccc9"/>
      <rect id="Rectangle_13" data-name="Rectangle 13" width="12" height="12" transform="translate(-1862 4997)" fill="#b1ccc9"/>
      <rect id="Rectangle_14" data-name="Rectangle 14" width="12" height="12" transform="translate(-1862 5034)" fill="#b1ccc9"/>
      <rect id="Rectangle_15" data-name="Rectangle 15" width="12" height="12" transform="translate(-1884 5022)" fill="#b1ccc9"/>
      <rect id="Rectangle_12" data-name="Rectangle 12" width="12" height="12" transform="translate(-1884 4983)" fill="#b1ccc9"/>
      <rect id="Rectangle_10" data-name="Rectangle 10" width="12" height="12" transform="translate(-1884 4944)" fill="#b1ccc9"/>
    </g>
    <g id="Group_12" data-name="Group 12" transform="translate(2946 299)">
      <line id="Line_4-2" data-name="Line 4" y2="161" transform="translate(-1867.5 4917.5)" fill="none" stroke="#ed7154" stroke-width="5"/>
      <rect id="Rectangle_9-2" data-name="Rectangle 9" width="12" height="12" transform="translate(-1862 4923)" fill="#ffaa1d"/>
      <rect id="Rectangle_11-2" data-name="Rectangle 11" width="12" height="12" transform="translate(-1862 4960)" fill="#ffaa1d"/>
      <rect id="Rectangle_13-2" data-name="Rectangle 13" width="12" height="12" transform="translate(-1862 4997)" fill="#ffaa1d"/>
      <rect id="Rectangle_14-2" data-name="Rectangle 14" width="12" height="12" transform="translate(-1862 5034)" fill="#ffaa1d"/>
      <rect id="Rectangle_15-2" data-name="Rectangle 15" width="12" height="12" transform="translate(-1884 5022)" fill="#ffaa1d"/>
      <rect id="Rectangle_12-2" data-name="Rectangle 12" width="12" height="12" transform="translate(-1884 4983)" fill="#ffaa1d"/>
      <rect id="Rectangle_10-2" data-name="Rectangle 10" width="12" height="12" transform="translate(-1884 4944)" fill="#ffaa1d"/>
    </g>
    <g id="Group_13" data-name="Group 13" transform="translate(2846 299)">
      <line id="Line_4-3" data-name="Line 4" y2="161" transform="translate(-1867.5 4917.5)" fill="none" stroke="#ed7154" stroke-width="5"/>
      <rect id="Rectangle_9-3" data-name="Rectangle 9" width="12" height="12" transform="translate(-1862 4923)" fill="#c61937"/>
      <rect id="Rectangle_11-3" data-name="Rectangle 11" width="12" height="12" transform="translate(-1862 4960)" fill="#c61937"/>
      <rect id="Rectangle_13-3" data-name="Rectangle 13" width="12" height="12" transform="translate(-1862 4997)" fill="#c61937"/>
      <rect id="Rectangle_14-3" data-name="Rectangle 14" width="12" height="12" transform="translate(-1862 5034)" fill="#c61937"/>
      <rect id="Rectangle_15-3" data-name="Rectangle 15" width="12" height="12" transform="translate(-1884 5022)" fill="#c61937"/>
      <rect id="Rectangle_12-3" data-name="Rectangle 12" width="12" height="12" transform="translate(-1884 4983)" fill="#c61937"/>
      <rect id="Rectangle_10-3" data-name="Rectangle 10" width="12" height="12" transform="translate(-1884 4944)" fill="#c61937"/>
    </g>
    <rect id="Rectangle_19" data-name="Rectangle 19" width="77" height="91" transform="translate(1740 5285)" fill="#851a5b"/>
    <path id="Path_22" data-name="Path 22" d="M0,0H93A44,44,0,0,1,49,44H44A44,44,0,0,1,0,0Z" transform="translate(1817 5285) rotate(90)" fill="#ffaa1d"/>
    <path id="Path_23" data-name="Path 23" d="M-971.639,4983c-58.225-40.449-64.176-39.7-64.176-39.7s14.2-5.269,26.312-3.443a39.477,39.477,0,0,1,19.735,9.082C-974.774,4958.926-971.639,4983-971.639,4983Z" transform="matrix(-0.883, -0.469, 0.469, -0.883, -1419.811, 9256.354)" fill="#efb657"/>
    <path id="Path_24" data-name="Path 24" d="M-1146,5020.533c49.945-35.276,54.547-34.509,54.547-34.509H-1146Z" transform="translate(2886 299)" fill="#d24299" opacity="0.56"/>
    <circle id="Ellipse_32" data-name="Ellipse 32" cx="5" cy="5" r="5" transform="translate(1671 5306)" fill="#ffaa1d"/>
    <circle id="Ellipse_45" data-name="Ellipse 45" cx="5" cy="5" r="5" transform="translate(1686 5329)" fill="#ffaa1d"/>
    <circle id="Ellipse_33" data-name="Ellipse 33" cx="5" cy="5" r="5" transform="translate(1649 5287)" fill="#ffaa1d"/>
    <g id="Group_20" data-name="Group 20" transform="translate(2881 300)">
      <path id="Rectangle_31" data-name="Rectangle 31" d="M77,0H99a77,77,0,0,1,77,77v0a0,0,0,0,1,0,0H0a0,0,0,0,1,0,0v0A77,77,0,0,1,77,0Z" transform="translate(-2720 4931)" fill="#ed7154"/>
      <path id="Path_31" data-name="Path 31" d="M69.867,2.027C105.367,2.027,142,22.833,142,51H0C0,22.833,34.367,2.027,69.867,2.027Z" transform="translate(-2700 4957)" fill="#0c314a"/>
    </g>
    <circle id="Ellipse_34" data-name="Ellipse 34" cx="5" cy="5" r="5" transform="translate(1626 5275)" fill="#ffaa1d"/>
    <circle id="Ellipse_35" data-name="Ellipse 35" cx="5" cy="5" r="5" transform="translate(1597 5272)" fill="#ffaa1d"/>
    <g id="Group_8" data-name="Group 8" transform="translate(2886 300)">
      <path id="Rectangle_8" data-name="Rectangle 8" d="M84,0h0a0,0,0,0,1,0,0V96a0,0,0,0,1,0,0H0a0,0,0,0,1,0,0V84A84,84,0,0,1,84,0Z" transform="translate(-2558 4912)" fill="#ffaa1d"/>
      <path id="Path_4" data-name="Path 4" d="M59,0V72H0V59A59,59,0,0,1,59,0Z" transform="translate(-2533 4936)" fill="#851a5b"/>
    </g>
    <circle id="Ellipse_37" data-name="Ellipse 37" cx="5" cy="5" r="5" transform="translate(1792 5212)" fill="#ed7154"/>
    <circle id="Ellipse_44" data-name="Ellipse 44" cx="5" cy="5" r="5" transform="translate(1792 5232)" fill="#ed7154"/>
    <circle id="Ellipse_38" data-name="Ellipse 38" cx="5" cy="5" r="5" transform="translate(1792 5252)" fill="#ed7154"/>
    <g id="Group_18" data-name="Group 18" transform="translate(2886 299)">
      <circle id="Ellipse_42" data-name="Ellipse 42" cx="5" cy="5" r="5" transform="translate(-1161 4988)" fill="#ed7154"/>
      <circle id="Ellipse_41" data-name="Ellipse 41" cx="5" cy="5" r="5" transform="translate(-1161 5008)" fill="#ed7154"/>
    </g>
    <circle id="Ellipse_39" data-name="Ellipse 39" cx="5" cy="5" r="5" transform="translate(1792 5272)" fill="#ed7154"/>
    <g id="Group_24" data-name="Group 24" transform="translate(2886 299)">
      <path id="Path_28" data-name="Path 28" d="M98.159,0h59.877V140.5H0V103.309C0,46.253,43.947,0,98.159,0Z" transform="translate(-1613.037 4938)" fill="#ffaa1d"/>
      <path id="Rectangle_23" data-name="Rectangle 23" d="M100,0h30a0,0,0,0,1,0,0V117a0,0,0,0,1,0,0H0a0,0,0,0,1,0,0V100A100,100,0,0,1,100,0Z" transform="translate(-1585 4962)" fill="#b1ccc9"/>
      <path id="Rectangle_25" data-name="Rectangle 25" d="M91,0h11a0,0,0,0,1,0,0V91a0,0,0,0,1,0,0H0a0,0,0,0,1,0,0v0A91,91,0,0,1,91,0Z" transform="translate(-1557 4988)" fill="#851a5b"/>
      <circle id="Ellipse_46" data-name="Ellipse 46" cx="5" cy="5" r="5" transform="translate(-1544 5067)" fill="#fff"/>
      <circle id="Ellipse_47" data-name="Ellipse 47" cx="5" cy="5" r="5" transform="translate(-1539 5040)" fill="#fff"/>
      <circle id="Ellipse_48" data-name="Ellipse 48" cx="5" cy="5" r="5" transform="translate(-1525 5019)" fill="#fff"/>
      <circle id="Ellipse_49" data-name="Ellipse 49" cx="5" cy="5" r="5" transform="translate(-1503 5003)" fill="#fff"/>
      <circle id="Ellipse_50" data-name="Ellipse 50" cx="5" cy="5" r="5" transform="translate(-1480 4998)" fill="#fff"/>
    </g>
    <g id="Group_27" data-name="Group 27" transform="translate(2885 300)">
      <path id="Path_27" data-name="Path 27" d="M0,0H160V140H0Z" transform="translate(-1454 4938)" fill="#ed7154"/>
      <g id="Group_26" data-name="Group 26" transform="translate(-2.703)">
        <g id="Group_25" data-name="Group 25" transform="translate(-1452.297 4986.725)">
          <g id="Group_17" data-name="Group 17" transform="translate(1)">
            <path id="Rectangle_21" data-name="Rectangle 21" d="M0,0H10a91,91,0,0,1,91,91v0a0,0,0,0,1,0,0H0a0,0,0,0,1,0,0V0A0,0,0,0,1,0,0Z" transform="translate(153 0.275)" fill="#c61937"/>
            <path id="Path_29" data-name="Path 29" d="M3.964.253C14.734,3.678,102,90.1,102,90.1c0,2.2-3.4.9-5.553.9H3.964C1.815,91,1.815.253,3.964.253Z" transform="translate(151 -1)" fill="rgba(242,57,89,0.57)"/>
            <path id="Path_26" data-name="Path 26" d="M0,0H160V91H0Z" fill="#c61937"/>
          </g>
          <circle id="Ellipse_29" data-name="Ellipse 29" cx="5" cy="5" r="5" transform="translate(4 9.275)" fill="#ffaa1d"/>
          <circle id="Ellipse_30" data-name="Ellipse 30" cx="5" cy="5" r="5" transform="translate(24 9.275)" fill="#ffaa1d"/>
          <circle id="Ellipse_31" data-name="Ellipse 31" cx="5" cy="5" r="5" transform="translate(44 9.275)" fill="#ffaa1d"/>
          <circle id="Ellipse_36" data-name="Ellipse 36" cx="5" cy="5" r="5" transform="translate(63 9.275)" fill="#ffaa1d"/>
        </g>
        <path id="Path_30" data-name="Path 30" d="M-1295,4986.022c-160.017-46.271-157.294-48.086-157.294-48.086H-1295Z" fill="#fc8e75"/>
      </g>
    </g>
    <g id="Group_23" data-name="Group 23" transform="translate(2886 299)">
      <rect id="Rectangle_27" data-name="Rectangle 27" width="154" height="137" rx="21" transform="translate(-1767 4942)" fill="#b1ccc9"/>
      <rect id="Rectangle_28" data-name="Rectangle 28" width="76" height="130" rx="22" transform="translate(-1767 4942)" fill="#92b8b5"/>
      <path id="Rectangle_26" data-name="Rectangle 26" d="M78.5,0h0A78.5,78.5,0,0,1,157,78.5V83a0,0,0,0,1,0,0H0a0,0,0,0,1,0,0V78.5A78.5,78.5,0,0,1,78.5,0Z" transform="translate(-1770 4996)" fill="#c61937"/>
      <path id="Rectangle_29" data-name="Rectangle 29" d="M0,0H.447A79.553,79.553,0,0,1,80,79.553v0A3.447,3.447,0,0,1,76.553,83H0a0,0,0,0,1,0,0V0A0,0,0,0,1,0,0Z" transform="translate(-1690 4996)" fill="#fdb8c4" opacity="0.24"/>
    </g>
    <g id="Group_6" data-name="Group 6" transform="translate(2886 295)">
      <g id="Group_5" data-name="Group 5" transform="translate(-3 -1)">
        <path id="Rectangle_2" data-name="Rectangle 2" d="M0,0H7A195,195,0,0,1,202,195v0a0,0,0,0,1,0,0H0a0,0,0,0,1,0,0V0A0,0,0,0,1,0,0Z" transform="translate(-2883 4887)" fill="#ffaa1d"/>
        <path id="Rectangle_3" data-name="Rectangle 3" d="M0,0H12A131,131,0,0,1,143,131v0a0,0,0,0,1,0,0H0a0,0,0,0,1,0,0V0A0,0,0,0,1,0,0Z" transform="translate(-2883 4950)" fill="#c31a37"/>
      </g>
      <path id="Path_1" data-name="Path 1" d="M-10.313.07,215,0V73H-.091a137.4,137.4,0,0,0,0-35.149C-2.646,19.619-10.313.07-10.313.07Z" transform="translate(-2689.004 5008)" fill="#b1ccc9"/>
      <path id="Path_3" data-name="Path 3" d="M-2580.656,4976.5c183.648,68.24,175.438,67.243,175.438,67.243V4976.5Z" transform="translate(-68.947 33)" fill="#92b8b5"/>
    </g>
    <rect id="Rectangle_20" data-name="Rectangle 20" width="109" height="73" transform="translate(1811 5212)" fill="#ffaa1d"/>
    <g id="Group_16" data-name="Group 16" transform="translate(2885 298)">
      <rect id="Rectangle_16" data-name="Rectangle 16" width="102" height="92" transform="translate(-1068 4987)" fill="#ed7154"/>
      <path id="Path_20" data-name="Path 20" d="M-1072.148,4985.811c105.729,93.477,101.645,92.116,101.645,92.116v-92.116Z" transform="translate(4 1)" fill="#c61937"/>
    </g>
    <path id="Rectangle_17" data-name="Rectangle 17" d="M44,0H58a44,44,0,0,1,44,44v0a0,0,0,0,1,0,0H0a0,0,0,0,1,0,0v0A44,44,0,0,1,44,0Z" transform="translate(1817 5241)" fill="#851a5b"/>
    <path id="Path_21" data-name="Path 21" d="M-967,4985.811c-62.644-43.2-65.746-43.2-65.746-43.2s15.428-2.2,29.436,0c7.123,1.119,13.735,4.873,19.381,8.605C-967.8,4961.878-967,4985.811-967,4985.811Z" transform="translate(2886 299)" fill="#ac377e"/>
    <path id="Path_25" data-name="Path 25" d="M-1146,5020.533c49.945-35.276,54.547-34.509,54.547-34.509H-1146Z" transform="translate(2957 226)" fill="#efb657"/>
    <g id="Group_19" data-name="Group 19" transform="translate(3066 179)">
      <circle id="Ellipse_42-2" data-name="Ellipse 42" cx="5" cy="5" r="5" transform="translate(-1161 4988)" fill="#ed7154"/>
      <circle id="Ellipse_41-2" data-name="Ellipse 41" cx="5" cy="5" r="5" transform="translate(-1161 5008)" fill="#ed7154"/>
    </g>
     <g id="Group_270" data-name="Group 270" transform="translate(189 4799)">
      <path id="Path_495" data-name="Path 495" d="M0,0H43V22.99H0Z" transform="translate(49 23)" fill="#ffaa1d"/>
      <rect id="Rectangle_267" data-name="Rectangle 267" width="16" height="69" transform="translate(49 23)" fill="#ed7154"/>
      <path id="Rectangle_268" data-name="Rectangle 268" d="M0,0H24a0,0,0,0,1,0,0V0A23,23,0,0,1,1,23H0a0,0,0,0,1,0,0V0A0,0,0,0,1,0,0Z" transform="translate(92 23)" fill="#0c314a"/>
      <path id="Rectangle_269" data-name="Rectangle 269" d="M0,0H6A29,29,0,0,1,35,29v0a0,0,0,0,1,0,0H0a0,0,0,0,1,0,0V0A0,0,0,0,1,0,0Z" transform="translate(65 63)" fill="#851a5b"/>
      <text id="CodeTrophs" transform="translate(98 83)" fill="#fff" font-size="32" font-family="Helvetica-Bold, Helvetica" font-weight="700"><tspan x="0" y="0">CodeTrophs</tspan></text>
    </g>
  </g>
</svg>
  